<?xml version="1.0" encoding="utf-8"?>
<!-- Generator: Adobe Illustrator 24.3.0, SVG Export Plug-In . SVG Version: 6.00 Build 0)  -->
<svg version="1.1" id="Layer_1" xmlns="http://www.w3.org/2000/svg" xmlns:xlink="http://www.w3.org/1999/xlink" x="0px" y="0px"
	 viewBox="0 0 1080 1080" style="enable-background:new 0 0 1080 1080;" xml:space="preserve">
<style type="text/css">
	.st0{fill:#006B68;}
</style>
<g>
	<g>
		<path class="st0" d="M606.8,501.63c-3.7-15.7-12.7-28.65-26.61-39.03c7,16.19,7.34,29.23,3.82,40.31h-21.36
			c-3.25,0-5.89,2.64-5.89,5.89s2.64,5.89,5.89,5.89h15.86c-3.86,6.23-8.85,11.85-14.28,17.16h-38.27c-3.25,0-5.89,2.64-5.89,5.89
			c0,3.25,2.64,5.89,5.89,5.89h25.4c-5.94,5.27-11.73,10.46-16.54,15.92h-21.99c-3.25,0-5.89,2.64-5.89,5.89
			c0,3.25,2.64,5.89,5.89,5.89h13.72c-7.42,14.6-5.58,32.25,17.67,58.09c-15.12-56.61,51.03-70.5,62.39-111.99
			C608.01,512.29,608.03,506.82,606.8,501.63z"/>
		<path class="st0" d="M514.6,502.91h-16.24c3.86-6.23,8.85-11.85,14.28-17.16h38.66c3.25,0,5.89-2.64,5.89-5.89
			s-2.64-5.89-5.89-5.89h-25.78c5.94-5.27,11.73-10.46,16.54-15.92h22.37c3.25,0,5.89-2.64,5.89-5.89c0-3.25-2.64-5.89-5.89-5.89
			h-14.11c7.42-14.6,5.58-32.25-17.67-58.09c15.12,56.61-51.03,70.5-62.39,111.99c-1.41,5.15-1.42,10.62-0.2,15.82
			c3.7,15.7,12.7,28.65,26.61,39.03c-7-16.19-7.34-29.23-3.82-40.31h21.74c3.25,0,5.89-2.64,5.89-5.89S517.85,502.91,514.6,502.91z"
			/>
	</g>
	<polygon class="st0" points="535.34,514.69 542.14,514.69 545.54,508.8 542.14,502.91 535.34,502.91 531.93,508.8 	"/>
	<g>
		<polygon class="st0" points="379.41,658.28 375.72,658.28 370.48,666.74 379.36,666.74 381.93,670.7 376.59,670.7 368.35,670.7 
			356.52,690.26 363.79,690.26 372.23,677.95 378.53,677.95 382.9,677.95 386.78,677.95 395.02,690.26 402.29,690.26 383.09,658.28 
					"/>
		<polygon class="st0" points="407.48,690.26 414.76,690.26 414.76,678.5 414.76,670.59 407.48,670.59 		"/>
		<polygon class="st0" points="430.56,680.37 417.47,658.28 407.48,658.28 407.48,666.74 414.85,666.74 428.04,690.26 
			432.89,690.26 445.99,666.74 445.99,690.26 453.26,690.26 453.26,682.29 453.26,658.28 442.88,658.28 		"/>
		<polygon class="st0" points="458.45,666.74 458.45,690.26 465.72,690.26 465.72,677.18 465.72,670.26 465.72,666.74 
			465.72,658.28 458.45,658.28 		"/>
		<path class="st0" d="M514.17,660.4c-1.75-1.41-3.93-2.1-6.55-2.06l-27.45-0.05h-9.17v8.46h38.21v3.63h-38.21v11.92v7.97h7.27
			v-8.68v-3.63h21.34l9.21,12.31h7.95l-9.21-12.31c3.07,0,5.37-0.57,6.91-1.7c1.54-1.14,2.3-3.09,2.3-5.88v-3.63
			C516.78,663.92,515.91,661.81,514.17,660.4z"/>
		<polygon class="st0" points="544.86,658.28 541.18,658.28 535.94,666.74 544.81,666.74 547.38,670.7 542.05,670.7 533.81,670.7 
			521.97,690.26 529.25,690.26 537.68,677.95 543.99,677.95 548.35,677.95 552.23,677.95 560.48,690.26 567.75,690.26 
			548.55,658.28 		"/>
		<path class="st0" d="M616.1,660.4c-1.75-1.41-3.93-2.1-6.55-2.06l-27.45-0.05h-9.17v8.46h38.21v3.63h-30.94h-7.27v19.89h9.17h27.4
			c2.65,0,4.85-0.7,6.6-2.12c1.75-1.41,2.62-3.52,2.62-6.35v-3.63c-0.13-2.13-1.71-3.33-4.75-3.63c3.04-0.66,4.62-2.05,4.75-4.18
			v-3.63C618.72,663.92,617.84,661.81,616.1,660.4z M611.15,681.8h-15.47h-15.47v-3.85h3.49h27.45V681.8z"/>
		<polygon class="st0" points="646.79,658.28 643.11,658.28 637.87,666.74 646.74,666.74 649.31,670.7 643.98,670.7 635.74,670.7 
			623.9,690.26 631.18,690.26 639.62,677.95 645.92,677.95 650.28,677.95 654.16,677.95 662.41,690.26 669.68,690.26 650.48,658.28 
					"/>
		<path class="st0" d="M717.98,660.67c-1.78-1.56-3.94-2.34-6.5-2.34l-27.45-0.05h-9.17v8.46h13.43h18.82
			c1.71,0,3.13,0.42,4.27,1.26c1.13,0.84,1.81,1.81,2.04,2.91v6.15c0,1.21-0.62,2.26-1.87,3.16c-1.25,0.9-2.64,1.35-4.19,1.35
			h-19.11h-6.11v-4.4v-6.92h-7.27v20h9.17h27.45c2.55,0,4.72-0.78,6.5-2.33s2.67-3.43,2.67-5.63v-15.99
			C720.65,664.11,719.76,662.23,717.98,660.67z"/>
	</g>
</g>
</svg>
