<?xml version="1.0" encoding="utf-8"?>
<!-- Generator: Adobe Illustrator 24.3.0, SVG Export Plug-In . SVG Version: 6.00 Build 0)  -->
<svg version="1.1" id="Layer_1" xmlns="http://www.w3.org/2000/svg" xmlns:xlink="http://www.w3.org/1999/xlink" x="0px" y="0px"
	 viewBox="0 0 1080 1080" style="enable-background:new 0 0 1080 1080;" xml:space="preserve">
<style type="text/css">
	.st0{fill:#006B68;}
</style>
<g>
	<g>
		<path class="st0" d="M607,508.55c-3.68-15.6-12.62-28.47-26.45-38.79c6.96,16.08,7.29,29.05,3.79,40.06h-21.22
			c-3.23,0-5.86,2.62-5.86,5.86c0,3.23,2.62,5.86,5.86,5.86h15.76c-3.83,6.19-8.8,11.78-14.19,17.05h-38.03
			c-3.23,0-5.86,2.62-5.86,5.86c0,3.23,2.62,5.86,5.86,5.86h25.24c-5.91,5.24-11.66,10.4-16.44,15.82h-21.85
			c-3.23,0-5.86,2.62-5.86,5.86c0,3.23,2.62,5.86,5.86,5.86h13.64c-7.37,14.51-5.55,32.05,17.56,57.73
			c-15.03-56.26,50.71-70.06,62-111.29C608.21,519.16,608.22,513.72,607,508.55z"/>
		<path class="st0" d="M515.37,509.83h-16.14c3.83-6.19,8.8-11.78,14.19-17.05h38.41c3.23,0,5.86-2.62,5.86-5.86
			c0-3.23-2.62-5.86-5.86-5.86h-25.62c5.91-5.24,11.66-10.4,16.44-15.82h22.23c3.23,0,5.86-2.62,5.86-5.86
			c0-3.23-2.62-5.86-5.86-5.86h-14.02c7.38-14.51,5.55-32.05-17.56-57.73c15.03,56.26-50.71,70.06-62,111.29
			c-1.4,5.12-1.41,10.56-0.2,15.72c3.68,15.6,12.62,28.47,26.45,38.79c-6.96-16.09-7.29-29.05-3.79-40.06h21.6
			c3.23,0,5.86-2.62,5.86-5.86C521.23,512.45,518.61,509.83,515.37,509.83z"/>
	</g>
	<polygon class="st0" points="535.98,521.54 542.75,521.54 546.13,515.68 542.75,509.83 535.98,509.83 532.6,515.68 	"/>
	<g>
		<polygon class="st0" points="373.45,664 371.01,664 367.54,669.61 373.42,669.61 375.12,672.23 371.59,672.23 366.12,672.23 
			358.28,685.19 363.1,685.19 368.7,677.04 372.87,677.04 375.77,677.04 378.34,677.04 383.8,685.19 388.63,685.19 375.9,664 		"/>
		<polygon class="st0" points="407.37,678.64 398.69,664 392.07,664 392.07,669.61 396.95,669.61 405.69,685.19 408.91,685.19 
			417.59,669.61 417.59,685.19 422.41,685.19 422.41,679.91 422.41,664 415.53,664 		"/>
		<polygon class="st0" points="392.07,685.19 396.89,685.19 396.89,677.4 396.89,672.16 392.07,672.16 		"/>
		<polygon class="st0" points="425.85,669.61 425.85,685.19 430.67,685.19 430.67,676.53 430.67,671.94 430.67,669.61 430.67,664 
			425.85,664 		"/>
		<path class="st0" d="M458.45,664.03L440.25,664h-6.08v5.61h25.33v2.4h-25.33v7.9v5.28H439v-5.75v-2.4h14.14l6.11,8.16h5.27
			l-6.11-8.16c2.04,0,3.56-0.38,4.58-1.13c1.02-0.75,1.53-2.05,1.53-3.9v-2.4c0-1.87-0.58-3.27-1.74-4.21
			C461.63,664.46,460.18,664.01,458.45,664.03z"/>
		<polygon class="st0" points="483.13,664 480.69,664 477.22,669.61 483.1,669.61 484.8,672.23 481.27,672.23 475.8,672.23 
			467.96,685.19 472.78,685.19 478.37,677.04 482.55,677.04 485.45,677.04 488.02,677.04 493.48,685.19 498.31,685.19 485.58,664 		
			"/>
		<path class="st0" d="M526.01,664.03L507.82,664h-6.08v5.61h25.33v2.4h-20.51h-4.82v13.19h6.08h18.16c1.76,0,3.21-0.47,4.37-1.4
			c1.16-0.93,1.74-2.34,1.74-4.21v-2.4c-0.09-1.41-1.14-2.21-3.15-2.4c2.01-0.44,3.06-1.36,3.15-2.77v-2.4
			c0-1.87-0.58-3.27-1.74-4.21C529.2,664.46,527.75,664.01,526.01,664.03z M527.08,679.59h-10.25h-10.25v-2.55h2.31h18.19V679.59z"
			/>
		<polygon class="st0" points="550.7,664 548.26,664 544.79,669.61 550.67,669.61 552.37,672.23 548.84,672.23 543.37,672.23 
			535.53,685.19 540.35,685.19 545.94,677.04 550.12,677.04 553.02,677.04 555.59,677.04 561.05,685.19 565.88,685.19 553.15,664 		
			"/>
		<path class="st0" d="M593.58,664.03L575.39,664h-6.08v5.61h8.9h12.47c1.14,0,2.08,0.28,2.83,0.84s1.2,1.2,1.35,1.93v4.08
			c0,0.8-0.41,1.5-1.24,2.09c-0.83,0.6-1.75,0.89-2.78,0.89h-12.67h-4.05v-2.91v-4.59h-4.82v13.26h6.08h18.19
			c1.69,0,3.13-0.52,4.31-1.55c1.18-1.03,1.77-2.28,1.77-3.73v-10.6c0-1.46-0.59-2.7-1.77-3.73
			C596.71,664.55,595.28,664.03,593.58,664.03z"/>
		<path class="st0" d="M643.92,679.44h-12.67c-1.16,0-2.12-0.29-2.89-0.87c-0.77-0.58-1.16-1.26-1.16-2.04v-4.08V664h-4.82v5.28
			v10.64c0,1.46,0.59,2.7,1.77,3.73c1.18,1.03,2.61,1.55,4.31,1.55h18.19h6.08v-5.75h-4.24H643.92z"/>
		<polygon class="st0" points="671.34,664 668.9,664 665.43,669.61 671.31,669.61 673.01,672.23 669.48,672.23 664.01,672.23 
			656.17,685.19 660.99,685.19 666.59,677.04 670.76,677.04 673.66,677.04 676.23,677.04 681.69,685.19 686.52,685.19 673.79,664 		
			"/>
		<path class="st0" d="M720.3,672.01v-2.4c0-1.87-0.58-3.27-1.74-4.21c-1.16-0.93-2.6-1.39-4.34-1.37L696.03,664h-6.08v5.61h25.33
			v2.4h-20.51h-4.82v13.19h6.08h18.16c1.76,0,3.21-0.47,4.37-1.4c1.16-0.93,1.74-2.34,1.74-4.21v-2.4c-0.09-1.41-1.14-2.21-3.15-2.4
			C719.17,674.34,720.22,673.42,720.3,672.01z M715.29,679.59h-10.25h-10.25v-2.55h2.31h18.19V679.59z"/>
	</g>
</g>
</svg>
