<?xml version="1.0" encoding="utf-8"?>
<!-- Generator: Adobe Illustrator 24.3.0, SVG Export Plug-In . SVG Version: 6.00 Build 0)  -->
<svg version="1.1" id="Layer_1" xmlns="http://www.w3.org/2000/svg" xmlns:xlink="http://www.w3.org/1999/xlink" x="0px" y="0px"
	 viewBox="0 0 1080 1080" style="enable-background:new 0 0 1080 1080;" xml:space="preserve">
<style type="text/css">
	.st0{fill:#006B68;}
</style>
<g>
	<g>
		<path class="st0" d="M607.08,479.8c-3.69-15.64-12.65-28.54-26.51-38.89c6.98,16.13,7.31,29.12,3.8,40.17h-21.28
			c-3.24,0-5.87,2.63-5.87,5.87s2.63,5.87,5.87,5.87h15.8c-3.84,6.21-8.82,11.81-14.23,17.1h-38.13c-3.24,0-5.87,2.63-5.87,5.87
			c0,3.24,2.63,5.87,5.87,5.87h25.3c-5.92,5.25-11.69,10.42-16.48,15.86h-21.9c-3.24,0-5.87,2.63-5.87,5.87
			c0,3.24,2.63,5.87,5.87,5.87h13.67c-7.39,14.55-5.56,32.13,17.6,57.88c-15.07-56.4,50.84-70.24,62.16-111.58
			C608.28,490.43,608.3,484.98,607.08,479.8z"/>
		<path class="st0" d="M515.21,481.08h-16.18c3.84-6.21,8.82-11.81,14.23-17.1h38.51c3.24,0,5.87-2.63,5.87-5.87
			s-2.63-5.87-5.87-5.87h-25.69c5.92-5.25,11.69-10.42,16.48-15.86h22.29c3.24,0,5.87-2.63,5.87-5.87c0-3.24-2.63-5.87-5.87-5.87
			h-14.06c7.39-14.55,5.56-32.13-17.6-57.88c15.07,56.4-50.84,70.24-62.16,111.58c-1.4,5.13-1.42,10.58-0.2,15.76
			c3.69,15.64,12.65,28.54,26.51,38.89c-6.98-16.13-7.31-29.12-3.8-40.17h21.66c3.24,0,5.87-2.63,5.87-5.87
			S518.45,481.08,515.21,481.08z"/>
	</g>
	<polygon class="st0" points="536,492.08 541.92,492.08 544.88,486.95 541.92,481.82 536,481.82 533.04,486.95 	"/>
	<g>
		<polygon class="st0" points="383.29,707.37 388.48,712.62 393.66,707.43 388.42,702.18 		"/>
		<path class="st0" d="M443.38,684.18c0,1.11-0.09,1.99-0.26,2.64c-0.17,0.65-0.45,1.15-0.82,1.5c-0.54,0.54-1.37,0.93-2.5,1.19
			c-1.13,0.26-2.69,0.39-4.66,0.39h-11.95h-0.74h-1.54c-0.31,0-0.76-0.04-1.34-0.12c-0.59-0.08-1.17-0.27-1.74-0.57
			c-0.58-0.3-1.08-0.75-1.51-1.34c-0.43-0.6-0.65-1.42-0.65-2.47v-10.1h-6.76v10.25c0,0.33-0.03,0.74-0.09,1.24
			c-0.06,0.49-0.29,0.97-0.68,1.44c-0.39,0.46-1.01,0.86-1.87,1.19c-0.85,0.33-2.06,0.49-3.63,0.49h-32.76
			c-0.29,0-0.7-0.05-1.23-0.14c-0.54-0.09-1.07-0.32-1.59-0.68c-0.53-0.36-0.99-0.9-1.39-1.62c-0.4-0.72-0.6-1.71-0.6-2.96
			c0-0.66,0.08-1.44,0.23-2.35c0.15-0.91,0.33-1.81,0.54-2.7c0.21-0.9,0.42-1.73,0.63-2.5c0.22-0.77,0.4-1.37,0.54-1.81l-3.24-1.02
			l-3.21-1.02c-0.06,0.19-0.22,0.68-0.46,1.5c-0.25,0.81-0.5,1.78-0.76,2.9c-0.26,1.12-0.49,2.31-0.71,3.55
			c-0.22,1.25-0.32,2.39-0.32,3.44c0,1.19,0.11,2.27,0.34,3.23c0.23,0.96,0.51,1.81,0.86,2.56c0.35,0.75,0.75,1.4,1.19,1.96
			c0.44,0.56,0.87,1.03,1.28,1.42c1.05,0.97,2.24,1.71,3.58,2.22c1.34,0.51,2.76,0.77,4.26,0.77h33.04
			c4.08-0.02,7.24-1.05,9.48-3.09c0.56,0.56,1.17,1.02,1.85,1.4c0.68,0.38,1.39,0.69,2.15,0.94c0.75,0.25,1.52,0.43,2.3,0.56
			c0.78,0.12,1.54,0.19,2.28,0.19h1.54h0.74h12.47c0.02,0,0.03-0.01,0.05-0.01c2.68-0.03,4.9-0.31,6.65-0.83
			c1.87-0.56,3.42-1.41,4.63-2.56c0.68-0.68,1.22-1.4,1.64-2.16c0.41-0.76,0.73-1.53,0.94-2.32c0.22-0.78,0.36-1.56,0.43-2.35
			c0.07-0.78,0.11-1.53,0.11-2.25v-32.14h-6.73V684.18z"/>
		<path class="st0" d="M505.74,680.35c-1.98-2.96-3.58-5.38-4.82-7.26c-1.24-1.87-2.2-3.33-2.9-4.38c-0.7-1.05-1.17-1.77-1.42-2.16
			l-0.4-0.59l-1.85-2.84l-5.65,3.71l1.85,2.84c0.02,0.02,0.15,0.23,0.4,0.62c0.25,0.39,0.72,1.11,1.42,2.16
			c0.7,1.05,1.67,2.51,2.9,4.37c1.24,1.86,2.84,4.29,4.82,7.27c0.74,1.11,1.18,1.94,1.33,2.47c0.14,0.54,0.22,0.94,0.22,1.2
			c0,0.18-0.03,0.34-0.09,0.46c-0.1,0.29-0.48,0.59-1.13,0.91s-1.63,0.58-2.95,0.79c-0.99,0.14-1.82,0.22-2.5,0.23
			c-0.68,0.01-1.12,0.02-1.33,0.02c-0.97,0-1.92-0.04-2.87-0.12c-1.15-0.1-2.24-0.28-3.26-0.53c-1.02-0.25-1.88-0.58-2.58-0.99
			l-2.93-1.67l-3.37,5.87l2.93,1.67c0.66,0.37,1.35,0.69,2.08,0.97c0.73,0.28,1.46,0.51,2.19,0.69c0.73,0.19,1.45,0.33,2.15,0.43
			c0.7,0.1,1.35,0.18,1.95,0.25c1.19,0.12,2.42,0.19,3.67,0.19c0.84,0,1.67-0.03,2.47-0.08c0.8-0.05,1.59-0.14,2.38-0.26
			c2.22-0.31,4.09-0.88,5.59-1.73c1.73-0.95,2.95-2.24,3.67-3.89c0.45-1.01,0.68-2.08,0.68-3.21c0-0.74-0.09-1.5-0.28-2.29
			C507.71,683.83,506.92,682.12,505.74,680.35z"/>
		<polygon class="st0" points="548.94,707.4 554.13,712.65 559.31,707.46 554.07,702.21 		"/>
		<path class="st0" d="M561.61,679.53c-0.15-0.98-0.32-1.95-0.49-2.92c-0.17-0.97-0.35-1.85-0.52-2.66
			c-0.18-0.8-0.32-1.48-0.45-2.02c-0.12-0.55-0.21-0.88-0.25-1l-6.39,1.95c0.08,0.31,0.2,0.75,0.34,1.33
			c0.14,0.58,0.29,1.23,0.45,1.95c0.15,0.72,0.31,1.49,0.48,2.32c0.16,0.82,0.31,1.63,0.43,2.41c0.12,0.78,0.23,1.51,0.31,2.19
			c0.08,0.68,0.12,1.25,0.12,1.7c0,1.22-0.19,2.16-0.57,2.84c-0.38,0.68-0.83,1.19-1.34,1.53s-1.03,0.55-1.56,0.63
			c-0.52,0.08-0.92,0.12-1.19,0.12h-7.81h-0.74h-11.92c-1.73,0-3.08-0.09-4.06-0.28c-0.98-0.19-1.71-0.57-2.19-1.14
			c-0.48-0.58-0.78-1.39-0.9-2.45c-0.11-1.06-0.17-2.45-0.17-4.18v-29.7h-6.76v29.7c0,1.69,0.05,3.22,0.15,4.6
			c0.1,1.38,0.32,2.62,0.65,3.72c0.33,1.1,0.81,2.06,1.44,2.87c0.63,0.81,1.46,1.49,2.5,2.02c1.04,0.54,2.32,0.94,3.84,1.2
			c1.37,0.24,3,0.37,4.87,0.39c0.03,0,0.04,0.01,0.07,0.01h12.47h0.74h7.6c1.36,0,2.72-0.24,4.08-0.71
			c1.36-0.47,2.58-1.19,3.66-2.16c1.08-0.97,1.96-2.2,2.64-3.71c0.68-1.5,1.02-3.27,1.02-5.31c0-0.68-0.05-1.48-0.15-2.39
			C561.9,681.46,561.77,680.51,561.61,679.53z"/>
		<path class="st0" d="M592.44,652.01v-5.59h-15.13c-1.54,0-2.96,0.08-4.26,0.25c-1.3,0.16-2.48,0.52-3.55,1.05
			c-1.24,0.66-2.31,1.58-3.21,2.76c-0.91,1.18-1.62,2.65-2.13,4.4l5.31,1.57c0.29-0.97,0.63-1.74,1.02-2.33
			c0.39-0.59,0.88-1.03,1.47-1.34c0.59-0.31,1.31-0.51,2.18-0.62c0.86-0.1,1.92-0.15,3.18-0.15H592.44z"/>
		<rect x="575.52" y="656.76" class="st0" width="6.76" height="39.89"/>
		<polygon class="st0" points="641.14,708.23 646.01,713.18 650.95,708.23 645.95,703.23 		"/>
		<polygon class="st0" points="629.37,708.17 634.25,713.11 639.19,708.17 634.19,703.17 		"/>
		<path class="st0" d="M701.84,674.72c-1.03-1.31-2.32-2.35-3.86-3.12c-1.54-0.77-3.37-1.16-5.47-1.16c-1.4,0-2.64,0.18-3.72,0.56
			c-1.08,0.37-2.03,0.88-2.86,1.53c-0.82,0.65-1.54,1.4-2.16,2.25c-0.62,0.85-1.15,1.77-1.61,2.73c-0.45,0.97-0.84,1.96-1.17,2.96
			c-0.33,1.01-0.63,2-0.89,2.96c-0.25,0.91-0.5,1.75-0.76,2.53c-0.26,0.78-0.54,1.46-0.85,2.04c-0.31,0.58-0.66,1.03-1.05,1.37
			c-0.39,0.34-0.85,0.51-1.39,0.51h-4.01h-0.56h-11.98h-0.68h-4.26c-0.14,0-0.37-0.01-0.68-0.03c-0.31-0.02-0.65-0.08-1.03-0.17
			c-0.38-0.09-0.77-0.23-1.16-0.42c-0.39-0.19-0.75-0.44-1.08-0.76c-0.33-0.32-0.6-0.72-0.82-1.2c-0.22-0.48-0.32-1.08-0.32-1.78
			v-10.25h-6.73v10.47c0,0.45-0.06,0.92-0.18,1.4c-0.12,0.48-0.39,0.93-0.8,1.33c-0.41,0.4-1.02,0.74-1.84,1s-1.9,0.4-3.26,0.4
			h-10.62h-0.53h-12.23h-0.46h-0.18c-0.21,0-0.58-0.06-1.13-0.17c-0.55-0.11-1.11-0.34-1.68-0.69c-0.58-0.35-1.09-0.84-1.53-1.48
			c-0.44-0.64-0.66-1.48-0.66-2.53v-9.69h-6.76v19.27c0,2.16-0.24,4-0.71,5.51c-0.47,1.51-1.19,2.74-2.16,3.67
			c-0.97,0.94-2.2,1.62-3.69,2.05c-1.49,0.43-3.27,0.65-5.33,0.65h-4.26v6.76h4.26c2.84,0,5.38-0.42,7.63-1.27
			c2.24-0.84,4.16-2.05,5.76-3.61s2.84-3.46,3.74-5.68c0.9-2.22,1.41-4.71,1.53-7.47c0.82,0.68,1.64,1.09,2.44,1.24
			c0.8,0.14,1.66,0.22,2.56,0.22h0.18h0.46h12.23h0.53h10.62c2.02,0,3.82-0.26,5.42-0.77c1.6-0.51,2.95-1.26,4.06-2.22
			c0.93,0.99,2.11,1.73,3.55,2.24c1.44,0.5,3.07,0.76,4.88,0.76h4.26h0.68h12.04h0.49h4.26c1.21,0,2.36-0.23,3.43-0.69
			s2.05-1.19,2.93-2.18c1.26,0.68,2.41,1.29,3.46,1.82c1.05,0.54,2.05,0.99,3.01,1.37c0.96,0.38,1.9,0.67,2.83,0.86
			c0.93,0.19,1.89,0.29,2.9,0.29c0.49,0,1.09-0.05,1.77-0.14c0.69-0.09,1.41-0.29,2.15-0.6c0.74-0.31,1.48-0.76,2.21-1.34
			c0.73-0.59,1.38-1.38,1.96-2.38c0.58-1,1.04-2.23,1.4-3.71c0.36-1.47,0.54-3.25,0.54-5.33c0-1.87-0.25-3.67-0.76-5.39
			C703.63,677.54,702.87,676.03,701.84,674.72z M698.23,688.64c-0.33,0.92-0.71,1.57-1.14,1.98c-0.43,0.4-0.86,0.63-1.28,0.68
			c-0.42,0.05-0.74,0.08-0.94,0.08c-0.6,0-1.27-0.1-2.02-0.31c-0.75-0.21-1.54-0.48-2.38-0.82s-1.68-0.73-2.55-1.16
			c-0.86-0.43-1.7-0.87-2.5-1.33c0.23-0.66,0.45-1.38,0.66-2.16c0.22-0.78,0.45-1.56,0.71-2.35c0.26-0.78,0.55-1.54,0.86-2.27
			c0.32-0.73,0.7-1.38,1.16-1.95c0.45-0.57,0.98-1.02,1.57-1.36s1.31-0.51,2.13-0.51c0.88,0,1.66,0.15,2.32,0.46
			c0.66,0.31,1.21,0.71,1.67,1.19c0.45,0.48,0.82,1.02,1.11,1.61s0.51,1.15,0.68,1.7c0.16,0.55,0.28,1.05,0.34,1.51s0.09,0.8,0.09,1
			C698.72,686.39,698.55,687.73,698.23,688.64z"/>
		<rect x="713.54" y="652.13" class="st0" width="6.76" height="44.52"/>
	</g>
</g>
</svg>
