<?xml version="1.0" encoding="utf-8"?>
<!-- Generator: Adobe Illustrator 24.3.0, SVG Export Plug-In . SVG Version: 6.00 Build 0)  -->
<svg version="1.1" id="Layer_1" xmlns="http://www.w3.org/2000/svg" xmlns:xlink="http://www.w3.org/1999/xlink" x="0px" y="0px"
	 viewBox="0 0 1080 1080" style="enable-background:new 0 0 1080 1080;" xml:space="preserve">
<style type="text/css">
	.st0{fill:#006B68;}
</style>
<g>
	<g>
		<path class="st0" d="M604.22,466.79c-3.48-14.75-11.93-26.91-25-36.66c6.58,15.2,6.9,27.45,3.59,37.87h-20.06
			c-3.06,0-5.53,2.48-5.53,5.53c0,3.06,2.48,5.53,5.53,5.53h14.89c-3.62,5.86-8.32,11.13-13.41,16.12h-35.95
			c-3.06,0-5.53,2.48-5.53,5.53c0,3.06,2.48,5.53,5.53,5.53h23.86c-5.58,4.95-11.02,9.83-15.54,14.95h-20.65
			c-3.06,0-5.53,2.48-5.53,5.53c0,3.06,2.48,5.53,5.53,5.53h12.89c-6.97,13.71-5.24,30.3,16.59,54.57
			c-14.21-53.18,47.93-66.22,58.6-105.2C605.36,476.81,605.37,471.67,604.22,466.79z"/>
		<path class="st0" d="M517.61,468h-15.25c3.62-5.85,8.32-11.13,13.41-16.12h36.31c3.06,0,5.53-2.48,5.53-5.53
			c0-3.06-2.48-5.53-5.53-5.53h-24.22c5.58-4.95,11.02-9.83,15.54-14.95h21.01c3.06,0,5.53-2.48,5.53-5.53
			c0-3.06-2.48-5.53-5.53-5.53h-13.25c6.97-13.71,5.24-30.3-16.59-54.57c14.21,53.18-47.93,66.22-58.6,105.2
			c-1.32,4.84-1.34,9.98-0.19,14.86c3.48,14.75,11.93,26.91,25,36.66c-6.58-15.2-6.9-27.45-3.59-37.87h20.42
			c3.06,0,5.53-2.48,5.53-5.53C523.14,470.48,520.67,468,517.61,468z"/>
	</g>
	<g>
		<path class="st0" d="M407.38,672.45c-2.8-4.19-5.07-7.62-6.81-10.27c-1.75-2.65-3.12-4.72-4.11-6.2c-0.99-1.48-1.66-2.5-2.01-3.06
			l-0.57-0.83l-2.62-4.02l-8,5.24l2.62,4.02c0.03,0.03,0.22,0.32,0.57,0.87c0.35,0.55,1.02,1.57,2.01,3.06
			c0.99,1.49,2.36,3.55,4.11,6.18c1.75,2.64,4.02,6.07,6.82,10.29c1.05,1.57,1.67,2.74,1.88,3.5s0.31,1.33,0.31,1.7
			c0,0.26-0.04,0.48-0.13,0.65c-0.15,0.41-0.68,0.84-1.59,1.29c-0.92,0.45-2.31,0.82-4.17,1.11c-1.4,0.2-2.58,0.31-3.54,0.33
			c-0.96,0.01-1.59,0.02-1.88,0.02c-1.37,0-2.72-0.06-4.06-0.17c-1.63-0.15-3.17-0.39-4.61-0.74c-1.44-0.35-2.66-0.82-3.65-1.4
			l-4.15-2.36l-4.76,8.3l4.15,2.36c0.93,0.52,1.91,0.98,2.95,1.38c1.03,0.39,2.07,0.72,3.1,0.98c1.03,0.26,2.05,0.46,3.04,0.61
			c0.99,0.15,1.91,0.26,2.75,0.35c1.69,0.17,3.42,0.26,5.2,0.26c1.19,0,2.36-0.04,3.5-0.11c1.14-0.07,2.26-0.2,3.36-0.37
			c3.14-0.44,5.78-1.25,7.91-2.45c2.45-1.34,4.18-3.17,5.2-5.5c0.64-1.43,0.96-2.94,0.96-4.54c0-1.05-0.13-2.13-0.39-3.23
			C410.17,677.37,409.05,674.96,407.38,672.45z"/>
		<path class="st0" d="M486.44,671.29c-0.22-1.38-0.45-2.76-0.7-4.13c-0.25-1.37-0.5-2.62-0.74-3.76c-0.25-1.14-0.46-2.09-0.63-2.86
			s-0.29-1.25-0.35-1.42l-9.04,2.75c0.12,0.44,0.28,1.06,0.48,1.88c0.2,0.82,0.41,1.73,0.63,2.75c0.22,1.02,0.44,2.11,0.68,3.28
			c0.23,1.17,0.44,2.3,0.61,3.41c0.17,1.11,0.32,2.14,0.44,3.1c0.12,0.96,0.18,1.76,0.18,2.4c0,1.72-0.27,3.06-0.81,4.02
			c-0.54,0.96-1.17,1.68-1.9,2.16c-0.73,0.48-1.46,0.78-2.21,0.9c-0.74,0.12-1.3,0.18-1.68,0.18h-11.05h-1.05h-16.86
			c-2.45,0-4.36-0.13-5.74-0.39s-2.42-0.8-3.1-1.62c-0.69-0.81-1.11-1.97-1.27-3.47c-0.16-1.5-0.24-3.47-0.24-5.92v-42.03h-9.57
			v42.03c0,2.39,0.07,4.56,0.22,6.51c0.15,1.95,0.45,3.71,0.92,5.26c0.47,1.56,1.14,2.91,2.03,4.06c0.89,1.15,2.07,2.11,3.54,2.86
			c1.47,0.76,3.28,1.33,5.44,1.7c1.94,0.34,4.25,0.52,6.89,0.55c0.04,0,0.06,0.01,0.1,0.01h17.65h1.05h10.75
			c1.92,0,3.85-0.33,5.77-1c1.92-0.67,3.65-1.69,5.18-3.06c1.53-1.37,2.77-3.12,3.74-5.24c0.96-2.13,1.44-4.63,1.44-7.51
			c0-0.96-0.07-2.09-0.22-3.39C486.84,674.02,486.66,672.68,486.44,671.29z"/>
		<polygon class="st0" points="468.5,710.72 475.84,718.15 483.18,710.81 475.76,703.38 		"/>
		<path class="st0" d="M530.06,632.35v-7.91h-21.41c-2.19,0-4.19,0.12-6.03,0.35c-1.83,0.23-3.51,0.73-5.02,1.49
			c-1.75,0.93-3.26,2.24-4.54,3.91c-1.28,1.67-2.29,3.75-3.01,6.23l7.51,2.23c0.41-1.37,0.89-2.47,1.44-3.3
			c0.55-0.83,1.25-1.46,2.08-1.9c0.83-0.44,1.86-0.73,3.08-0.87s2.72-0.22,4.5-0.22H530.06z"/>
		<rect x="506.12" y="639.07" class="st0" width="9.57" height="56.45"/>
		<polygon class="st0" points="582.31,711.82 589.21,718.81 596.2,711.82 589.13,704.74 		"/>
		<polygon class="st0" points="598.96,711.9 605.86,718.89 612.85,711.9 605.77,704.82 		"/>
		<path class="st0" d="M684.85,664.48c-1.46-1.85-3.28-3.32-5.46-4.41c-2.18-1.09-4.76-1.64-7.73-1.64c-1.98,0-3.74,0.26-5.26,0.79
			c-1.53,0.52-2.88,1.24-4.04,2.16c-1.17,0.92-2.19,1.98-3.06,3.19c-0.87,1.21-1.63,2.5-2.27,3.87c-0.64,1.37-1.19,2.77-1.66,4.19
			c-0.47,1.43-0.89,2.83-1.27,4.19c-0.35,1.28-0.71,2.48-1.07,3.58c-0.36,1.11-0.76,2.07-1.2,2.88c-0.44,0.82-0.93,1.46-1.49,1.94
			c-0.55,0.48-1.21,0.72-1.97,0.72h-5.68h-0.79h-16.95h-0.96h-6.03c-0.2,0-0.52-0.01-0.96-0.04c-0.44-0.03-0.93-0.11-1.46-0.24
			c-0.54-0.13-1.09-0.33-1.64-0.59c-0.55-0.26-1.06-0.62-1.53-1.07c-0.47-0.45-0.85-1.02-1.16-1.7c-0.31-0.68-0.46-1.52-0.46-2.51
			v-14.5h-9.52v14.81c0,0.64-0.09,1.3-0.26,1.99c-0.18,0.68-0.55,1.31-1.14,1.88c-0.58,0.57-1.45,1.04-2.6,1.42
			c-1.15,0.38-2.69,0.57-4.61,0.57h-15.03h-0.74h-17.3h-0.66h-0.26c-0.29,0-0.82-0.08-1.59-0.24c-0.77-0.16-1.57-0.49-2.38-0.98
			c-0.82-0.49-1.54-1.19-2.16-2.1c-0.63-0.9-0.94-2.1-0.94-3.58v-13.72h-9.57v27.26c0,3.06-0.33,5.66-1,7.8
			c-0.67,2.14-1.69,3.87-3.06,5.2c-1.37,1.32-3.11,2.29-5.22,2.9c-2.11,0.61-4.62,0.92-7.54,0.92h-6.03v9.57h6.03
			c4.02,0,7.62-0.6,10.79-1.79c3.17-1.19,5.89-2.9,8.15-5.11c2.26-2.21,4.02-4.89,5.29-8.04c1.27-3.15,1.99-6.67,2.16-10.57
			c1.16,0.96,2.32,1.54,3.45,1.75c1.14,0.2,2.34,0.31,3.63,0.31h0.26h0.66h17.3h0.74h15.03c2.85,0,5.41-0.36,7.67-1.09
			c2.26-0.73,4.17-1.78,5.74-3.14c1.31,1.4,2.98,2.45,5.02,3.17c2.04,0.71,4.34,1.07,6.9,1.07h6.03h0.96h17.04h0.7h6.03
			c1.72,0,3.34-0.33,4.85-0.98c1.51-0.66,2.9-1.68,4.15-3.08c1.78,0.96,3.41,1.82,4.89,2.58c1.49,0.76,2.91,1.4,4.26,1.94
			c1.35,0.54,2.69,0.95,4,1.22c1.31,0.28,2.68,0.41,4.11,0.41c0.7,0,1.54-0.07,2.51-0.2c0.98-0.13,1.99-0.41,3.04-0.85
			c1.05-0.44,2.09-1.07,3.12-1.9c1.03-0.83,1.96-1.95,2.77-3.36c0.82-1.41,1.48-3.16,1.99-5.24c0.51-2.08,0.76-4.59,0.76-7.54
			c0-2.65-0.36-5.19-1.07-7.62C687.39,668.47,686.3,666.33,684.85,664.48z M679.74,684.18c-0.47,1.3-1.01,2.23-1.62,2.8
			s-1.22,0.89-1.81,0.96c-0.6,0.07-1.04,0.11-1.33,0.11c-0.85,0-1.8-0.14-2.86-0.44c-1.06-0.29-2.18-0.68-3.36-1.16
			c-1.18-0.48-2.38-1.03-3.6-1.64s-2.4-1.24-3.54-1.88c0.32-0.93,0.63-1.95,0.94-3.06c0.31-1.11,0.64-2.21,1-3.32
			c0.36-1.11,0.77-2.18,1.22-3.21c0.45-1.03,1-1.95,1.64-2.75c0.64-0.8,1.38-1.44,2.23-1.92c0.84-0.48,1.85-0.72,3.01-0.72
			c1.25,0,2.34,0.22,3.28,0.66c0.93,0.44,1.72,1,2.36,1.68c0.64,0.68,1.16,1.44,1.57,2.27c0.41,0.83,0.73,1.63,0.96,2.4
			c0.23,0.77,0.39,1.49,0.48,2.14c0.09,0.66,0.13,1.13,0.13,1.42C680.44,681,680.2,682.89,679.74,684.18z"/>
		<rect x="701.41" y="632.52" class="st0" width="9.57" height="63"/>
	</g>
	<polygon class="st0" points="537.21,478.37 542.79,478.37 545.58,473.53 542.79,468.7 537.21,468.7 534.42,473.53 	"/>
</g>
</svg>
